<mxfile host="app.diagrams.net" modified="2024-01-07T08:10:48.600Z" agent="Mozilla/5.0 (Linux; Android 13; 22041211AC Build/TP1A.220624.014) AppleWebKit/537.36 (KHTML, like Gecko) Chrome/115.0.5790.166 Mobile Safari/537.36" version="22.1.17" etag="v18RfVFPO-xlm5RZd36V" type="github">
  <diagram name="第 1 页" id="64uKTfu0pB5RWLWMxyp-">
    <mxGraphModel>
      <root>
        <mxCell id="0" />
        <mxCell id="1" parent="0" />
      </root>
    </mxGraphModel>
  </diagram>
</mxfile>
